<svg width="80" height="80" viewBox="0 0 80 80" fill="none" xmlns="http://www.w3.org/2000/svg">
<path fill-rule="evenodd" clip-rule="evenodd" d="M40 80C62.0914 80 80 62.0914 80 40C80 17.9086 62.0914 0 40 0C17.9086 0 0 17.9086 0 40C0 62.0914 17.9086 80 40 80ZM29.1362 22L29.2 22H50.8L50.8638 22H50.8638C51.3686 21.9999 51.8601 21.9999 52.2765 22.0339C52.7336 22.0713 53.2731 22.1594 53.816 22.436C54.5686 22.8195 55.1805 23.4314 55.564 24.184C55.8406 24.7269 55.9288 25.2664 55.9661 25.7236C56.0001 26.1399 56.0001 26.6315 56 27.1363L56 27.2V52.8L56 52.8638C56.0001 53.3685 56.0001 53.8601 55.9661 54.2765C55.9288 54.7337 55.8406 55.2731 55.564 55.816C55.1805 56.5686 54.5686 57.1805 53.816 57.564C53.2731 57.8406 52.7336 57.9288 52.2765 57.9661C51.8603 58.0001 51.3689 58.0001 50.8644 58H50.8643H50.8643H50.8642H50.8641H50.8641H50.8638L50.8 58H29.2L29.1362 58H29.1359H29.1359H29.1358H29.1357H29.1357H29.1356C28.631 58.0001 28.1397 58.0001 27.7235 57.9661C27.2664 57.9288 26.7269 57.8406 26.184 57.564C25.4314 57.1805 24.8195 56.5686 24.436 55.816C24.1594 55.2731 24.0712 54.7337 24.0339 54.2765C23.9999 53.8602 23.9999 53.3686 24 52.8639V52.8638L24 52.8V52H20V48H24V42.5H20V38.5H24V33H20V29H24V27.2L24 27.1362V27.1362V27.1361C23.9999 26.6314 23.9999 26.1398 24.0339 25.7236C24.0712 25.2664 24.1594 24.7269 24.436 24.184C24.8195 23.4314 25.4314 22.8195 26.184 22.436C26.7269 22.1594 27.2664 22.0713 27.7235 22.0339C28.1399 21.9999 28.6314 21.9999 29.1362 22H29.1362ZM28.0229 26.0229L28.0206 26.0493C28.0016 26.2824 28 26.607 28 27.2V52.8C28 53.3931 28.0016 53.7176 28.0206 53.9507L28.0229 53.9771L28.0493 53.9794C28.2824 53.9985 28.6069 54 29.2 54H50.8C51.3931 54 51.7176 53.9985 51.9507 53.9794L51.9771 53.9771L51.9794 53.9507C51.9984 53.7176 52 53.3931 52 52.8V27.2C52 26.607 51.9984 26.2824 51.9794 26.0493L51.9771 26.0229L51.9507 26.0206C51.7176 26.0016 51.3931 26 50.8 26H29.2C28.6069 26 28.2824 26.0016 28.0493 26.0206L28.0229 26.0229ZM40 39C42.2091 39 44 37.2091 44 35C44 32.7909 42.2091 31 40 31C37.7909 31 36 32.7909 36 35C36 37.2091 37.7909 39 40 39ZM32 46.8C32 44.149 34.149 42 36.8 42H43.2C45.851 42 48 44.149 48 46.8C48 47.4628 47.4627 48 46.8 48H33.2C32.5373 48 32 47.4628 32 46.8Z" fill="#A983FB"/>
</svg>
