<svg width="24" height="24" viewBox="0 0 24 24" fill="none" xmlns="http://www.w3.org/2000/svg">
<path d="M11.998 9.00098C10.3412 9.00098 8.99805 10.3441 8.99805 12.001C8.99805 13.6578 10.3412 15.001 11.998 15.001C13.6549 15.001 14.998 13.6578 14.998 12.001C14.998 10.3441 13.6549 9.00098 11.998 9.00098Z" fill="white" fill-opacity="0.5"/>
<path fill-rule="evenodd" clip-rule="evenodd" d="M1.99805 9.95098C1.99805 7.19788 1.99805 5.82133 2.52532 4.76608C3.00929 3.79752 3.79459 3.01222 4.76315 2.52825C5.8184 2.00098 7.19495 2.00098 9.94805 2.00098H14.048C16.8011 2.00098 18.1777 2.00098 19.2329 2.52825C20.2015 3.01222 20.9868 3.79752 21.4708 4.76608C21.998 5.82133 21.998 7.19788 21.998 9.95098V14.051C21.998 16.8041 21.998 18.1806 21.4708 19.2359C20.9868 20.2044 20.2015 20.9897 19.2329 21.4737C18.1777 22.001 16.8011 22.001 14.048 22.001H9.94805C7.19495 22.001 5.8184 22.001 4.76315 21.4737C3.79459 20.9897 3.00929 20.2044 2.52532 19.2359C1.99805 18.1806 1.99805 16.8041 1.99805 14.051V9.95098ZM6.99805 12.001C6.99805 9.23955 9.23662 7.00098 11.998 7.00098C14.7595 7.00098 16.998 9.23955 16.998 12.001C16.998 14.7624 14.7595 17.001 11.998 17.001C9.23662 17.001 6.99805 14.7624 6.99805 12.001ZM17.498 7.00098C18.3265 7.00098 18.998 6.3294 18.998 5.50098C18.998 4.67255 18.3265 4.00098 17.498 4.00098C16.6696 4.00098 15.998 4.67255 15.998 5.50098C15.998 6.3294 16.6696 7.00098 17.498 7.00098Z" fill="white" fill-opacity="0.5"/>
</svg>
