<svg width="80" height="80" viewBox="0 0 80 80" fill="none" xmlns="http://www.w3.org/2000/svg">
<path fill-rule="evenodd" clip-rule="evenodd" d="M40 80C62.0914 80 80 62.0914 80 40C80 17.9086 62.0914 0 40 0C17.9086 0 0 17.9086 0 40C0 62.0914 17.9086 80 40 80ZM59 40V22H21V38V44V47V51V54V58H59V56V54V44V40ZM55 51V54H25V51H55ZM55 44V47H25V44H55ZM55 26V40H25V38V26H55ZM43.1201 37.5H45.4404V35.9795C45.4404 35.2002 45.3525 34.4883 45.1768 33.8438C45.0068 33.1934 44.7607 32.6162 44.4385 32.1123C44.1162 31.6025 43.7295 31.1719 43.2783 30.8203C42.833 30.4688 42.332 30.2021 41.7754 30.0205C41.5756 29.9532 41.3705 29.898 41.1602 29.8548V27.9902H38.8223V29.8522C38.4685 29.9239 38.1286 30.0298 37.8027 30.1699C37.1406 30.4512 36.5664 30.8613 36.0801 31.4004C35.5938 31.9395 35.2158 32.5957 34.9463 33.3691C34.6768 34.1367 34.542 35.0068 34.542 35.9795V37.5H36.8711V35.9619C36.8711 35.2529 36.9443 34.6289 37.0908 34.0898C37.2373 33.5508 37.4482 33.0996 37.7236 32.7363C37.999 32.3672 38.3271 32.0889 38.708 31.9014C38.7457 31.8822 38.7837 31.8641 38.8223 31.8468V37.5H41.1602V31.8406C41.4364 31.9568 41.6854 32.1206 41.9072 32.332C42.165 32.5664 42.3848 32.8594 42.5664 33.2109C42.748 33.5625 42.8857 33.9668 42.9795 34.4238C43.0732 34.8809 43.1201 35.3936 43.1201 35.9619V37.5Z" fill="black"/>
</svg>
