<svg width="80" height="80" viewBox="0 0 80 80" fill="none" xmlns="http://www.w3.org/2000/svg">
<rect width="80" height="80" rx="40" fill="#39CC7E"/>
<path d="M35.8181 24.993L40.2361 18.444L36.9201 16.207L30.2648 26.0725L40.1312 32.7265L42.3677 29.4102L35.8181 24.993Z" fill="black"/>
<path fill-rule="evenodd" clip-rule="evenodd" d="M40 26.0005C47.732 26.0005 54 32.2685 54 40.0005C54 47.7324 47.732 54.0005 40 54.0005C32.268 54.0005 26 47.7324 26 40.0005C26 38.7888 26.1535 37.616 26.4409 36.499L22.5672 35.5019C22.1966 36.9419 22 38.4497 22 40.0005C22 49.9416 30.0589 58.0005 40 58.0005C49.9411 58.0005 58 49.9416 58 40.0005C58 30.0593 49.9411 22.0005 40 22.0005C38.8489 22.0005 37.7213 22.1088 36.6273 22.3163C35.6274 22.506 34.6565 22.7783 33.7222 23.1261L35.1174 26.8749C35.8425 26.605 36.5961 26.3935 37.3727 26.2462C38.2222 26.0851 39.1003 26.0005 40 26.0005Z" fill="black"/>
</svg>
