<svg width="80" height="80" viewBox="0 0 80 80" fill="none" xmlns="http://www.w3.org/2000/svg">
<path fill-rule="evenodd" clip-rule="evenodd" d="M30 24C28.8954 24 28 24.8954 28 26V54C28 55.1046 28.8954 56 30 56H50C51.1046 56 52 55.1046 52 54V26C52 24.8954 51.1046 24 50 24H30ZM43 50C43 51.6569 41.6569 53 40 53C38.3431 53 37 51.6569 37 50C37 48.3431 38.3431 47 40 47C41.6569 47 43 48.3431 43 50Z" fill="#51B8B1"/>
<path fill-rule="evenodd" clip-rule="evenodd" d="M40 80C62.0914 80 80 62.0914 80 40C80 17.9086 62.0914 0 40 0C17.9086 0 0 17.9086 0 40C0 62.0914 17.9086 80 40 80ZM24 26C24 22.6863 26.6863 20 30 20H50C53.3137 20 56 22.6863 56 26V54C56 57.3137 53.3137 60 50 60H30C26.6863 60 24 57.3137 24 54V26Z" fill="#51B8B1"/>
</svg>
