<svg width="80" height="80" viewBox="0 0 80 80" fill="none" xmlns="http://www.w3.org/2000/svg">
<path fill-rule="evenodd" clip-rule="evenodd" d="M40 80C62.0914 80 80 62.0914 80 40C80 17.9086 62.0914 0 40 0C17.9086 0 0 17.9086 0 40C0 62.0914 17.9086 80 40 80ZM40 20C28.9543 20 20 28.9543 20 40C20 51.0457 28.9543 60 40 60C51.0457 60 60 51.0457 60 40C60 28.9543 51.0457 20 40 20ZM24 40C24 31.1634 31.1634 24 40 24C48.8366 24 56 31.1634 56 40C56 48.8366 48.8366 56 40 56C31.1634 56 24 48.8366 24 40ZM34 32C32.3431 32 31 33.3431 31 35C31 36.6569 32.3431 38 34 38C35.6569 38 37 36.6569 37 35C37 33.3431 35.6569 32 34 32ZM46 32C44.3431 32 43 33.3431 43 35C43 36.6569 44.3431 38 46 38C47.6569 38 49 36.6569 49 35C49 33.3431 47.6569 32 46 32ZM40.0002 51C35.1622 51 31.1267 47.5645 30.2002 43H34.3416C35.1652 45.3304 37.3877 47 40.0002 47C42.6126 47 44.8351 45.3304 45.6587 43H49.8001C48.8736 47.5645 44.8381 51 40.0002 51Z" fill="#FF7092"/>
</svg>
