<svg width="80" height="80" viewBox="0 0 80 80" fill="none" xmlns="http://www.w3.org/2000/svg">
<path fill-rule="evenodd" clip-rule="evenodd" d="M40 80C62.0914 80 80 62.0914 80 40C80 17.9086 62.0914 0 40 0C17.9086 0 0 17.9086 0 40C0 62.0914 17.9086 80 40 80ZM42.3879 26.203C41.6131 26.07 40.8155 26.0005 40 26.0005C32.268 26.0005 26 32.2685 26 40.0005C26 47.7324 32.268 54.0005 40 54.0005C47.732 54.0005 54 47.7324 54 40.0005C54 38.7888 53.8465 37.616 53.5591 36.499L57.4328 35.5019C57.8034 36.9419 58 38.4497 58 40.0005C58 49.9416 49.9411 58.0005 40 58.0005C30.0589 58.0005 22 49.9416 22 40.0005C22 30.0593 30.0589 22.0005 40 22.0005C40.7639 22.0005 41.5175 22.0482 42.2579 22.1409L39.7639 18.444L43.0799 16.207L49.7352 26.0725L39.8688 32.7265L37.6323 29.4102L42.3879 26.203Z" fill="#FF75D0"/>
</svg>
