<svg width="80" height="80" viewBox="0 0 80 80" fill="none" xmlns="http://www.w3.org/2000/svg">
<path d="M46 34V40H50V34H56V54H24V34H30V40H34V34H46Z" fill="black"/>
<path d="M46 30V28C46 24.6863 43.3137 22 40 22C36.6863 22 34 24.6863 34 28V30H46Z" fill="black"/>
<path fill-rule="evenodd" clip-rule="evenodd" d="M40 80C62.0914 80 80 62.0914 80 40C80 17.9086 62.0914 0 40 0C17.9086 0 0 17.9086 0 40C0 62.0914 17.9086 80 40 80ZM40 18C34.4772 18 30 22.4772 30 28V30H20V58H60V30H50V28C50 22.4772 45.5228 18 40 18Z" fill="black"/>
</svg>
