<svg width="24" height="24" viewBox="0 0 24 24" fill="none" xmlns="http://www.w3.org/2000/svg">
<path d="M19.6799 1.91992H4.31992C2.99656 1.91992 1.91992 2.99656 1.91992 4.31992V19.6799C1.91992 21.0033 2.99656 22.0799 4.31992 22.0799H19.6799C21.0033 22.0799 22.0799 21.0033 22.0799 19.6799V4.31992C22.0799 2.99656 21.0033 1.91992 19.6799 1.91992ZM17.7628 10.715C17.6538 10.725 17.5434 10.7318 17.4316 10.7318C16.1726 10.7318 15.0662 10.0842 14.4225 9.10552C14.4225 11.673 14.4225 14.5943 14.4225 14.6433C14.4225 16.9036 12.5898 18.7362 10.3295 18.7362C8.0692 18.7362 6.23656 16.9036 6.23656 14.6433C6.23656 12.383 8.0692 10.5503 10.3295 10.5503C10.415 10.5503 10.4985 10.558 10.5825 10.5633V12.5802C10.4985 12.5702 10.4159 12.5548 10.3295 12.5548C9.1756 12.5548 8.24056 13.4898 8.24056 14.6438C8.24056 15.7977 9.1756 16.7327 10.3295 16.7327C11.4834 16.7327 12.5025 15.8236 12.5025 14.6697C12.5025 14.6241 12.5226 5.26456 12.5226 5.26456H14.4503C14.6318 6.98824 16.0233 8.34856 17.7628 8.47336V10.715Z" fill="white" fill-opacity="0.5"/>
</svg>
