<svg width="24" height="24" viewBox="0 0 24 24" fill="none" xmlns="http://www.w3.org/2000/svg">
<path fill-rule="evenodd" clip-rule="evenodd" d="M21.9989 11.5C21.9989 17.0228 17.5217 21.5 11.9989 21.5C10.4866 21.5 9.05267 21.1643 7.76763 20.5633L1.57031 22.5L3.57405 16.8895C2.57702 15.3342 1.99888 13.4846 1.99888 11.5C1.99888 5.97715 6.47604 1.5 11.9989 1.5C17.5217 1.5 21.9989 5.97715 21.9989 11.5ZM10.3567 7.47599C10.4171 7.54004 10.4814 7.60818 10.5532 7.68326C10.944 8.07422 10.9649 8.71437 10.5739 9.10522L9.9101 9.77413C9.09144 10.6083 13.1652 14.6727 14.0285 13.8307L14.6923 13.1618C15.0833 12.7709 15.7234 12.75 16.1143 13.141C16.2835 13.3181 16.4225 13.4545 16.5615 13.591C16.7006 13.7274 16.8396 13.8639 17.0088 14.041C17.3996 14.4319 17.5412 15.2348 17.1502 15.6256C13.831 18.9702 4.72333 10.0909 8.1239 6.68598C8.51486 6.29513 9.2678 6.3923 9.65865 6.78327C9.96045 7.0562 10.1319 7.2379 10.3567 7.47599Z" fill="white" fill-opacity="0.5"/>
</svg>
